<svg xmlns="http://www.w3.org/2000/svg" viewBox="0 0 64 64"><g fill="#F7F7F7" class="nc-icon-wrapper"><path d="M56,57H8c-3.309,0-6-2.691-6-6V13c0-3.309,2.691-6,6-6h30c.553,0,1,.447,1,1s-.447,1-1,1H8c-2.206,0-4,1.794-4,4V51c0,2.206,1.794,4,4,4H56c2.206,0,4-1.794,4-4V20c0-.553,.447-1,1-1s1,.447,1,1v31c0,3.309-2.691,6-6,6Z" fill="#F7F7F7"></path><path d="M20,26c-2.757,0-5-2.243-5-5s2.243-5,5-5,5,2.243,5,5-2.243,5-5,5Z" fill="#F7F7F7"></path><path d="M52,48H12c-.366,0-.702-.2-.878-.521-.175-.321-.161-.713,.037-1.021l9-14c.163-.254,.434-.421,.734-.453,.298-.036,.6,.073,.813,.287l6.176,6.176,10.311-14.061c.199-.271,.523-.426,.856-.407,.335,.017,.641,.201,.812,.49l13,22c.183,.31,.186,.692,.007,1.005-.178,.312-.509,.504-.868,.504Z" fill="#F7F7F7"></path><path d="M53,21c-.553,0-1-.447-1-1,0-4.411-3.589-8-8-8-.553,0-1-.447-1-1s.447-1,1-1c4.411,0,8-3.589,8-8,0-.553,.447-1,1-1s1,.447,1,1c0,4.411,3.589,8,8,8,.553,0,1,.447,1,1s-.447,1-1,1c-4.411,0-8,3.589-8,8,0,.553-.447,1-1,1Z" data-color="color-2"></path></g></svg>